<svg id="Layer_1" data-name="Layer 1" xmlns="http://www.w3.org/2000/svg" viewBox="0 0 16 16">
    <defs>
        <style>.cls-1{fill:#a3d39c;stroke:#007236;stroke-miterlimit:10;stroke-width:0.5px;}.cls-2{fill:#363636;}</style>
    </defs>
    <title>flexmark-logo</title>
    <circle class="cls-1" cx="8" cy="8" r="6"/>
    <path class="cls-2" d="M9.64,6,8.89,9.33a11.52,11.52,0,0,1-1.74,4.34A3.5,3.5,0,0,1,4.2,15.11a2,2,0,0,1-1.29-.34A1,1,0,0,1,2.5,14a1,1,0,0,1,.32-.73,1,1,0,0,1,.74-.3.94.94,0,0,1,1,.93q.08.48.42.48c.23,0,.45-.22.64-.64a15.39,15.39,0,0,0,.7-2.54l.23-1.09c.07-.26.12-.46.15-.61L7.46,6h-1l.26-.84h.89a7.23,7.23,0,0,1,1.65-3.4A3.27,3.27,0,0,1,11.53.89,2.74,2.74,0,0,1,13,1.23a1,1,0,0,1,.55.9.93.93,0,0,1-.27.66.87.87,0,0,1-.68.28c-.39,0-.73-.28-1-.83s-.42-.63-.63-.63-.45.34-.58,1l-.5,2.52h1.12L10.69,6Z"/>
</svg>
