<svg viewBox="0 0 24 24" xmlns="http://www.w3.org/2000/svg">
    <path d="m20.4 12.2c0 4.5-3.7 8.2-8.2 8.2s-8.2-3.7-8.2-8.2 3.7-8.2 8.2-8.2 8.2 3.7 8.2 8.2zm-4.2-2.9c-.1-1.3-1-2.5-2.3-2.9-.8-.2-1.6-.1-2.4.1-.6.1-1.5.2-1.8.6-.4.5.2 1 .6 1.3.6.4 1.1-.1 1.8-.3s3-.7 2.4.8c-.5 1.1-2 1.9-3 2.6-.4.3-.9.6-1.2 1-.5.6.1 1 .7 1.4.4.3.9.2 1.2-.1.5-.5 1-.9 1.6-1.3 1.1-.7 2.5-1.6 2.4-3.2-.2-1.3 0 .7 0 0zm-2.8 6.8c-.3-.5-1.3-1.3-1.9-1.1-.4.1-.4.4-.5.8-.1.2-.4.6-.3.8.1.4 1.5 1.3 1.9 1 .1-.1.9-1.4.8-1.5 0-.1.1.1 0 0z" fill="currentColor"/>
</svg>
