<svg viewBox="0 0 24 24" xmlns="http://www.w3.org/2000/svg">
    <path d="m3.1 18.5 8.1-14c.4-.7 1.4-.7 1.8 0l8.1 14c.4.7-.1 1.6-.9 1.6h-16.1c-.9 0-1.4-.9-1-1.6zm10.6-4.3c0-.1 0-.2 0-.2v-4.6c0-.4 0-.6 0-.6-.1-.1-.3-.2-.7-.3s-.7-.1-1-.1c-.1 0-.2 0-.3 0-.3.1-.5.2-.5.4v4.2s-.1.1-.2.4-.1.4 0 .5c.3.2.7.4 1.2.6s.9.3 1.2.3h.2c.2 0 .3-.2.3-.5-.2 0-.2-.1-.2-.1zm-.8 1.4c-.5-.2-.9-.2-1.2-.2s-.4.1-.5.4v.9c0 .2 0 .3-.1.4-.1.2-.2.3-.1.4s.5.3 1.2.5c.6.2 1 .2 1.1.2.2 0 .4-.1.4-.3s.1-.4.1-.7c0-.1 0-.3.1-.7 0-.3 0-.5 0-.5-.2-.1-.5-.2-1-.4z" fill="currentColor"/>
</svg>
