<svg viewBox="0 0 24 24" xmlns="http://www.w3.org/2000/svg">
    <g fill="currentColor">
        <path d="m16.7 13.9-4.8-1.9-4.8 1.8v3.7l4.8 1.8 4.8-1.8zm-4.8 3.4-2-.8v-1.5l2-.8 2 .8v1.5z"/>
        <path d="m16.7 8.9-4.8-1.8-4.8 1.8v3.7l4.8 1.8 4.8-1.8zm-4.8 3.4-2-.8v-1.5l2-.8 2 .8v1.5z"/>
        <path d="m4.5 9.4v1.8h2l1.2-.9-1.2-.9z"/>
        <path d="m4.5 12.4v1.8h2l1.2-.9-1.2-.9z"/>
        <path d="m4.5 15.4v1.7h2l1.2-.8-1.2-.9z"/>
        <path d="m15 5 1.4 1-1.2 1.8-1.2.3-.2-1.2z"/>
        <path d="m8.8 5-1.4 1 1.2 1.8 1.2.2.3-1.2z"/>
        <path d="m19.5 9.4v1.8h-2.1l-1.2-.9 1.2-.9z"/>
        <path d="m19.5 12.4v1.8h-2.1l-1.2-.9 1.2-.9z"/>
        <path d="m19.5 15.4v1.7h-2.1l-1.2-.8 1.2-.9z"/>
    </g>
</svg>
