<svg viewBox="0 0 24 24" xmlns="http://www.w3.org/2000/svg">
    <path d="m20.5 11.8c0 4.5-3.7 8.2-8.2 8.2s-8.2-3.7-8.2-8.2 3.7-8.2 8.2-8.2 8.2 3.7 8.2 8.2zm-6.7 4c-.1-.1-.2-.2-.2-.3v-4.5c0-.1.1-.2.2-.4s.2-.3.2-.3 0-.1-.1-.1c-.1-.1-.5-.2-1.2-.4-.7-.1-1.2-.2-1.5-.2-.5 0-.7 0-.7.1s.1.3.2.6v4.7c0 .3-.1.5-.2.6-.2.2-.2.3-.2.3.1.1.5.3 1.2.4.6.1 1.2.2 1.6.2h.3c.4-.1.5-.2.5-.5.1 0 .1-.1-.1-.2zm-.9-8.6c-.7-.1-1.2-.2-1.5-.2-.2 0-.5.2-.7.4s-.3.4-.3.6c0 .1 0 .1.1.2s.6.2 1.5.4c1 .3 1.5.4 1.6.3.1 0 .2-.2.3-.5s.2-.5.2-.6v-.1c-.1-.1-.5-.3-1.2-.5z" fill="currentColor"/>
</svg>
