<svg viewBox="0 0 24 24" xmlns="http://www.w3.org/2000/svg">
    <path fill="currentColor" d="m10.7 13.1c-.6.6-1.5 1.1-2.8 1.4-.3.1-.5 0-.9-.3-.3-.3-.5-.5-.5-.8 0-.1.1-.2.2-.2.3-.1.6-.4.8-1s.4-1.1.4-1.8c0-1.3-.5-2.2-1.5-2.6-.6-.2-.9-.7-.9-1.4 0-.2 0-.3.1-.4.1-.3.7-.7 1.6-1.2s1.6-.7 1.9-.6c.8.2 1.5.8 2.1 1.9.5 1.1.8 2.3.8 3.5 0 1.4-.4 2.6-1.3 3.5zm6.6 0c-.6.6-1.5 1.1-2.8 1.4-.3.1-.5 0-.9-.3-.3-.3-.5-.5-.5-.8 0-.1.1-.2.2-.2.3-.1.6-.4.8-1s.4-1.1.4-1.8c0-1.3-.5-2.2-1.5-2.6-.6-.3-.8-.7-.8-1.5 0-.2 0-.3.1-.4.1-.3.7-.7 1.6-1.2s1.6-.7 1.9-.6c.8.2 1.5.8 2.1 1.9s.9 2.2.9 3.4c-.2 1.6-.6 2.8-1.5 3.7z"/>
</svg>
